<svg width="45" height="44" viewBox="0 0 45 44" fill="none" xmlns="http://www.w3.org/2000/svg">
<path fill-rule="evenodd" clip-rule="evenodd" d="M36.614 5.1469C37.0258 4.74385 37.5844 4.51742 38.1667 4.51742C38.7491 4.51742 39.3077 4.74385 39.7195 5.1469C40.1313 5.54995 40.3627 6.09661 40.3627 6.66661C40.3627 7.23661 40.1313 7.78327 39.7195 8.18632L21.4989 26.0193L17.3582 27.0324L18.3934 22.9798L36.614 5.1469ZM38.1667 0.684082C36.5456 0.684082 34.9908 1.31438 33.8445 2.43632L15.2403 20.6447C14.9894 20.8903 14.8113 21.1981 14.7252 21.5351L12.7669 29.2018C12.6 29.8549 12.7956 30.5458 13.282 31.0219C13.7684 31.498 14.4744 31.6893 15.1417 31.5261L22.975 29.6094C23.3194 29.5251 23.6339 29.3509 23.8848 29.1052L42.489 10.8969C43.6353 9.77496 44.2793 8.25328 44.2793 6.66661C44.2793 5.07995 43.6353 3.55827 42.489 2.43632C41.3427 1.31438 39.7879 0.684082 38.1667 0.684082ZM6.83337 4.74998C5.27523 4.74998 3.7809 5.35578 2.67912 6.43412C1.57735 7.51245 0.958374 8.97499 0.958374 10.5V37.3333C0.958374 38.8583 1.57735 40.3208 2.67912 41.3992C3.7809 42.4775 5.27523 43.0833 6.83337 43.0833H34.25C35.8082 43.0833 37.3025 42.4775 38.4043 41.3992C39.5061 40.3208 40.125 38.8583 40.125 37.3333V23.9166C40.125 22.8581 39.2483 22 38.1667 22C37.0852 22 36.2084 22.8581 36.2084 23.9166V37.3333C36.2084 37.8416 36.0021 38.3292 35.6348 38.6886C35.2675 39.048 34.7694 39.25 34.25 39.25H6.83337C6.31399 39.25 5.81588 39.048 5.44862 38.6886C5.08136 38.3292 4.87504 37.8416 4.87504 37.3333V10.5C4.87504 9.99165 5.08136 9.50414 5.44862 9.14469C5.81588 8.78525 6.31399 8.58331 6.83337 8.58331H20.5417C21.6233 8.58331 22.5 7.72519 22.5 6.66665C22.5 5.6081 21.6233 4.74998 20.5417 4.74998H6.83337Z" fill="black" fill-opacity="0.7"/>
</svg>
